<svg
   className="icon"
   xmlns="http://www.w3.org/2000/svg"
   viewBox="0 0 104.40317 83.13328"
   >
  <defs
     id="defs50" />
    <g
     id="g44">
    <rect
       x="5.02914"
       y="8.63138"
       width="77.33334"
       height="62.29167"
       rx="4"
       ry="4"
       transform="translate(-7.45722 9.32921) rotate(-12)"
       fill="#fafafb"
       id="rect32" />
    <rect
       x="5.52914"
       y="9.13138"
       width="76.33334"
       height="61.29167"
       rx="4"
       ry="4"
       transform="translate(-7.45722 9.32921) rotate(-12)"
       fill="none"
       stroke="#979797"
       id="rect34" />
    <rect
       x="26.56627"
       y="4.48824"
       width="62.29167"
       height="77.33333"
       rx="4"
       ry="4"
       transform="translate(0.94874 87.10632) rotate(-75)"
       fill="#fafafb"
       id="rect38" />
    <rect
       x="27.06627"
       y="4.98824"
       width="61.29167"
       height="76.33333"
       rx="4"
       ry="4"
       transform="translate(0.94874 87.10632) rotate(-75)"
       fill="none"
       stroke="#979797"
       id="rect40" />
    <path
       style="fill:#a0a0a0;stroke:none;stroke-width:0.0716049"
       d="m 42.540311,30.101846 c -3.398647,-0.301776 -6.470414,-1.560199 -7.546853,-3.09175 -0.420988,-0.598979 -0.562522,-0.990115 -0.562522,-1.554556 0,-1.778715 2.068839,-3.361717 5.524612,-4.227234 2.205837,-0.552465 5.369816,-0.640674 7.792581,-0.217253 2.186515,0.382133 4.055034,1.113462 5.211712,2.039839 0.616126,0.493451 0.936832,0.89087 1.222578,1.515023 0.162305,0.354523 0.180818,0.473205 0.153866,0.986441 -0.02577,0.490785 -0.06893,0.655278 -0.271814,1.035887 -1.137421,2.133844 -5.221945,3.62557 -9.811029,3.583128 -0.571049,-0.0053 -1.341958,-0.03657 -1.713131,-0.06952 z"
       id="path56" />
  </g>
</svg>
